<svg version="1.1" xmlns="http://www.w3.org/2000/svg" xmlns:xlink="http://www.w3.org/1999/xlink" width="48" height="48"><defs><linearGradient x1="11.67152" y1="17.27538" x2="63.09651" y2="57.49267" gradientUnits="userSpaceOnUse" id="color-1"><stop offset="0.37" stop-color="#000000" stop-opacity="0.45"></stop><stop offset="1" stop-color="#000000" stop-opacity="0"></stop></linearGradient><filter id="dropshadow-base"><feColorMatrix type="matrix" values="0 0 0 0 0  0 0 0 0 0  0 0 0 0 0  0 0 0 .8 0"></feColorMatrix> <feOffset dx="0" dy="1"></feOffset> <feGaussianBlur stdDeviation="1"></feGaussianBlur> <feComposite in="SourceGraphic"></feComposite></filter><filter id="dropshadow-banner" x="-10%" y="-10%" width="120%" height="130%"><feColorMatrix type="matrix" values="0 0 0 0 0  0 0 0 0 0  0 0 0 0 0  0 0 0 .4 0"></feColorMatrix> <feOffset dx="0" dy="1"></feOffset> <feGaussianBlur stdDeviation="0.5"></feGaussianBlur> <feComposite in="SourceGraphic"></feComposite></filter></defs><g fill="none" fill-rule="nonzero" stroke="none" stroke-width="none" stroke-linecap="butt" stroke-linejoin="miter" stroke-miterlimit="10" stroke-dasharray="" stroke-dashoffset="0" font-family="none" font-weight="none" font-size="none" text-anchor="none" style="mix-blend-mode: normal"><path d="M2,24c0,-12.15026 9.84974,-22 22,-22c12.15026,0 22,9.84974 22,22c0,12.15026 -9.84974,22 -22,22c-12.15026,0 -22,-9.84974 -22,-22z" id="base 1 5" fill="#455a64" stroke-width="1"></path><path d="M13.64057,28.75559c-1.21674,-1.21674 -1.96906,-2.8979 -1.96906,-4.75558c0,-3.71536 3.00927,-6.72463 6.72463,-6.72463c1.85288,0 3.52814,0.75096 4.74238,1.96519l2.51789,2.51789l10.67206,0.00002l8.70633,8.70633c-2.17668,7.09085 -7.84038,12.65586 -14.99053,14.69448z" fill="url(#color-1)" stroke-width="1"></path><path d="M24.7285,21.75846c-0.92464,-2.6114 -3.40714,-4.48308 -6.33236,-4.48308c-3.71536,0 -6.72463,3.00927 -6.72463,6.72463c0,3.71536 3.00927,6.72463 6.72463,6.72463c2.92521,0 5.40772,-1.87169 6.33236,-4.48308h4.87535v4.48308h4.48308v-4.48308h2.24154v-4.48308zM18.39614,26.24154c-1.23845,0 -2.24154,-1.00309 -2.24154,-2.24154c0,-1.23845 1.00309,-2.24154 2.24154,-2.24154c1.23845,0 2.24154,1.00309 2.24154,2.24154c0,1.23845 -1.00309,2.24154 -2.24154,2.24154z" fill="none" stroke-width="0"></path><path d="M36.32848,21.75846v4.48308h-2.24154v4.48308h-4.48308v-4.48308h-4.87535c-0.92464,2.6114 -3.40714,4.48308 -6.33236,4.48308c-3.71536,0 -6.72463,-3.00927 -6.72463,-6.72463c0,-3.71536 3.00927,-6.72463 6.72463,-6.72463c2.92521,0 5.40772,1.87169 6.33236,4.48308zM20.63769,24c0,-1.23845 -1.00309,-2.24154 -2.24154,-2.24154c-1.23845,0 -2.24154,1.00309 -2.24154,2.24154c0,1.23845 1.00309,2.24154 2.24154,2.24154c1.23845,0 2.24154,-1.00309 2.24154,-2.24154z" fill="#ffffff" stroke-width="0"></path><path d="M2,24c0,-12.15026 9.84974,-22 22,-22c12.15026,0 22,9.84974 22,22c0,12.15026 -9.84974,22 -22,22c-12.15026,0 -22,-9.84974 -22,-22z" id="base 1 1 1" fill="none" stroke-width="1"></path><g fill="#000000" stroke-width="1" font-family="Roboto, sans-serif" font-weight="400" font-size="14" text-anchor="start"></g><rect x="2" y="2" width="44" height="22" fill="none" stroke-width="1"></rect><path d="M2,24v-22h44v22z" fill="none" stroke-width="1"></path><path d="M2,24v-22h44v22z" fill="none" stroke-width="1"></path><path d="M2,24v-22h44v22z" fill="none" stroke-width="1"></path><path d="M2,24v-22h44v22z" fill="none" stroke-width="1"></path></g></svg>